<?xml version="1.0" encoding="UTF-8" standalone="no"?>
<!-- This is a Stata 16.1 generated SVG file (http://www.stata.com) -->

<svg version="1.1" width="600px" height="436px" viewBox="0 0 3960 2880" xmlns="http://www.w3.org/2000/svg" xmlns:xlink="http://www.w3.org/1999/xlink">
	<desc>Stata Graph - Graph</desc>
	<rect x="0" y="0" width="3960" height="2880" style="fill:#EAF2F3;stroke:none"/>
	<rect x="0.00" y="0.00" width="3959.88" height="2880.00" style="fill:#EAF2F3"/>
	<rect x="2.88" y="2.88" width="3954.12" height="2874.24" style="fill:none;stroke:#EAF2F3;stroke-width:5.76"/>
	<rect x="390.80" y="100.86" width="3468.22" height="2388.33" style="fill:#FFFFFF"/>
	<rect x="393.68" y="103.74" width="3462.46" height="2382.57" style="fill:none;stroke:#FFFFFF;stroke-width:5.76"/>
	<line x1="390.80" y1="2425.82" x2="3859.02" y2="2425.82" style="stroke:#EAF2F3;stroke-width:8.64"/>
	<line x1="390.80" y1="1671.91" x2="3859.02" y2="1671.91" style="stroke:#EAF2F3;stroke-width:8.64"/>
	<line x1="390.80" y1="918.01" x2="3859.02" y2="918.01" style="stroke:#EAF2F3;stroke-width:8.64"/>
	<line x1="390.80" y1="164.22" x2="3859.02" y2="164.22" style="stroke:#EAF2F3;stroke-width:8.64"/>
	<rect x="454.16" y="1946.52" width="16.71" height="479.30" style="fill:#CAC27E"/>
	<rect x="458.48" y="1950.84" width="8.07" height="470.66" style="fill:none;stroke:#D7D29E;stroke-width:8.64"/>
	<rect x="470.87" y="2271.75" width="16.71" height="154.07" style="fill:#CAC27E"/>
	<rect x="475.19" y="2276.07" width="8.07" height="145.43" style="fill:none;stroke:#D7D29E;stroke-width:8.64"/>
	<rect x="487.57" y="2254.67" width="16.71" height="171.15" style="fill:#CAC27E"/>
	<rect x="491.89" y="2258.99" width="8.07" height="162.51" style="fill:none;stroke:#D7D29E;stroke-width:8.64"/>
	<rect x="504.28" y="2117.68" width="16.71" height="308.15" style="fill:#CAC27E"/>
	<rect x="508.60" y="2122.00" width="8.07" height="299.51" style="fill:none;stroke:#D7D29E;stroke-width:8.64"/>
	<rect x="520.99" y="1929.45" width="16.71" height="496.38" style="fill:#CAC27E"/>
	<rect x="525.31" y="1933.77" width="8.07" height="487.74" style="fill:none;stroke:#D7D29E;stroke-width:8.64"/>
	<rect x="537.69" y="1638.38" width="16.71" height="787.45" style="fill:#CAC27E"/>
	<rect x="542.01" y="1642.70" width="8.07" height="778.81" style="fill:none;stroke:#D7D29E;stroke-width:8.64"/>
	<rect x="554.40" y="1278.87" width="16.71" height="1146.95" style="fill:#CAC27E"/>
	<rect x="558.72" y="1283.19" width="8.07" height="1138.31" style="fill:none;stroke:#D7D29E;stroke-width:8.64"/>
	<rect x="571.11" y="1090.64" width="16.71" height="1335.18" style="fill:#CAC27E"/>
	<rect x="575.43" y="1094.96" width="8.07" height="1326.54" style="fill:none;stroke:#D7D29E;stroke-width:8.64"/>
	<rect x="587.81" y="645.50" width="16.71" height="1780.32" style="fill:#CAC27E"/>
	<rect x="592.13" y="649.82" width="8.07" height="1771.68" style="fill:none;stroke:#D7D29E;stroke-width:8.64"/>
	<rect x="604.52" y="268.92" width="16.71" height="2156.91" style="fill:#CAC27E"/>
	<rect x="608.84" y="273.24" width="8.07" height="2148.27" style="fill:none;stroke:#D7D29E;stroke-width:8.64"/>
	<rect x="621.23" y="525.71" width="16.71" height="1900.12" style="fill:#CAC27E"/>
	<rect x="625.54" y="530.03" width="8.07" height="1891.48" style="fill:none;stroke:#D7D29E;stroke-width:8.64"/>
	<rect x="637.93" y="679.78" width="16.71" height="1746.04" style="fill:#CAC27E"/>
	<rect x="642.25" y="684.10" width="8.07" height="1737.40" style="fill:none;stroke:#D7D29E;stroke-width:8.64"/>
	<rect x="654.64" y="320.28" width="16.71" height="2105.55" style="fill:#CAC27E"/>
	<rect x="658.96" y="324.59" width="8.07" height="2096.91" style="fill:none;stroke:#D7D29E;stroke-width:8.64"/>
	<rect x="671.34" y="337.35" width="16.71" height="2088.47" style="fill:#CAC27E"/>
	<rect x="675.66" y="341.67" width="8.07" height="2079.83" style="fill:none;stroke:#D7D29E;stroke-width:8.64"/>
	<rect x="688.05" y="525.71" width="16.71" height="1900.12" style="fill:#CAC27E"/>
	<rect x="692.37" y="530.03" width="8.07" height="1891.48" style="fill:none;stroke:#D7D29E;stroke-width:8.64"/>
	<rect x="704.76" y="628.42" width="16.71" height="1797.40" style="fill:#CAC27E"/>
	<rect x="709.08" y="632.74" width="8.07" height="1788.76" style="fill:none;stroke:#D7D29E;stroke-width:8.64"/>
	<rect x="721.46" y="816.78" width="16.71" height="1609.05" style="fill:#CAC27E"/>
	<rect x="725.78" y="821.10" width="8.07" height="1600.41" style="fill:none;stroke:#D7D29E;stroke-width:8.64"/>
	<rect x="738.17" y="782.50" width="16.71" height="1643.33" style="fill:#CAC27E"/>
	<rect x="742.49" y="786.82" width="8.07" height="1634.69" style="fill:none;stroke:#D7D29E;stroke-width:8.64"/>
	<rect x="754.88" y="1159.08" width="16.71" height="1266.74" style="fill:#CAC27E"/>
	<rect x="759.19" y="1163.40" width="8.07" height="1258.10" style="fill:none;stroke:#D7D29E;stroke-width:8.64"/>
	<rect x="771.58" y="987.93" width="16.71" height="1437.90" style="fill:#CAC27E"/>
	<rect x="775.90" y="992.25" width="8.07" height="1429.26" style="fill:none;stroke:#D7D29E;stroke-width:8.64"/>
	<rect x="788.29" y="1364.51" width="16.71" height="1061.31" style="fill:#CAC27E"/>
	<rect x="792.61" y="1368.83" width="8.07" height="1052.67" style="fill:none;stroke:#D7D29E;stroke-width:8.64"/>
	<rect x="804.99" y="1415.87" width="16.71" height="1009.96" style="fill:#CAC27E"/>
	<rect x="809.31" y="1420.19" width="8.07" height="1001.32" style="fill:none;stroke:#D7D29E;stroke-width:8.64"/>
	<rect x="821.70" y="1706.81" width="16.71" height="719.01" style="fill:#CAC27E"/>
	<rect x="826.02" y="1711.13" width="8.07" height="710.37" style="fill:none;stroke:#D7D29E;stroke-width:8.64"/>
	<rect x="838.41" y="1741.09" width="16.71" height="684.73" style="fill:#CAC27E"/>
	<rect x="842.73" y="1745.41" width="8.07" height="676.09" style="fill:none;stroke:#D7D29E;stroke-width:8.64"/>
	<rect x="855.11" y="1775.37" width="16.71" height="650.45" style="fill:#CAC27E"/>
	<rect x="859.43" y="1779.69" width="8.07" height="641.81" style="fill:none;stroke:#D7D29E;stroke-width:8.64"/>
	<rect x="871.82" y="1809.53" width="16.71" height="616.29" style="fill:#CAC27E"/>
	<rect x="876.14" y="1813.85" width="8.07" height="607.65" style="fill:none;stroke:#D7D29E;stroke-width:8.64"/>
	<rect x="888.52" y="1878.09" width="16.71" height="547.73" style="fill:#CAC27E"/>
	<rect x="892.84" y="1882.41" width="8.07" height="539.09" style="fill:none;stroke:#D7D29E;stroke-width:8.64"/>
	<rect x="905.23" y="1929.45" width="16.71" height="496.38" style="fill:#CAC27E"/>
	<rect x="909.55" y="1933.77" width="8.07" height="487.74" style="fill:none;stroke:#D7D29E;stroke-width:8.64"/>
	<rect x="921.94" y="2083.52" width="16.71" height="342.30" style="fill:#CAC27E"/>
	<rect x="926.26" y="2087.84" width="8.07" height="333.66" style="fill:none;stroke:#D7D29E;stroke-width:8.64"/>
	<rect x="938.64" y="1860.89" width="16.71" height="564.94" style="fill:#CAC27E"/>
	<rect x="942.96" y="1865.21" width="8.07" height="556.30" style="fill:none;stroke:#D7D29E;stroke-width:8.64"/>
	<rect x="955.35" y="2032.16" width="16.71" height="393.66" style="fill:#CAC27E"/>
	<rect x="959.67" y="2036.48" width="8.07" height="385.02" style="fill:none;stroke:#D7D29E;stroke-width:8.64"/>
	<rect x="972.06" y="2066.32" width="16.71" height="359.50" style="fill:#CAC27E"/>
	<rect x="976.38" y="2070.64" width="8.07" height="350.87" style="fill:none;stroke:#D7D29E;stroke-width:8.64"/>
	<rect x="988.76" y="2083.52" width="16.71" height="342.30" style="fill:#CAC27E"/>
	<rect x="993.08" y="2087.84" width="8.07" height="333.66" style="fill:none;stroke:#D7D29E;stroke-width:8.64"/>
	<rect x="1005.47" y="2100.60" width="16.71" height="325.23" style="fill:#CAC27E"/>
	<rect x="1009.79" y="2104.92" width="8.07" height="316.59" style="fill:none;stroke:#D7D29E;stroke-width:8.64"/>
	<rect x="1022.17" y="2066.32" width="16.71" height="359.50" style="fill:#CAC27E"/>
	<rect x="1026.49" y="2070.64" width="8.07" height="350.87" style="fill:none;stroke:#D7D29E;stroke-width:8.64"/>
	<rect x="1038.88" y="2288.95" width="16.71" height="136.87" style="fill:#CAC27E"/>
	<rect x="1043.20" y="2293.27" width="8.07" height="128.23" style="fill:none;stroke:#D7D29E;stroke-width:8.64"/>
	<rect x="1055.59" y="2100.60" width="16.71" height="325.23" style="fill:#CAC27E"/>
	<rect x="1059.91" y="2104.92" width="8.07" height="316.59" style="fill:none;stroke:#D7D29E;stroke-width:8.64"/>
	<rect x="1072.29" y="2288.95" width="16.71" height="136.87" style="fill:#CAC27E"/>
	<rect x="1076.61" y="2293.27" width="8.07" height="128.23" style="fill:none;stroke:#D7D29E;stroke-width:8.64"/>
	<rect x="1089.00" y="2237.59" width="16.71" height="188.23" style="fill:#CAC27E"/>
	<rect x="1093.32" y="2241.91" width="8.07" height="179.59" style="fill:none;stroke:#D7D29E;stroke-width:8.64"/>
	<rect x="1105.71" y="2288.95" width="16.71" height="136.87" style="fill:#CAC27E"/>
	<rect x="1110.03" y="2293.27" width="8.07" height="128.23" style="fill:none;stroke:#D7D29E;stroke-width:8.64"/>
	<rect x="1122.41" y="2323.11" width="16.71" height="102.72" style="fill:#CAC27E"/>
	<rect x="1126.73" y="2327.43" width="8.07" height="94.08" style="fill:none;stroke:#D7D29E;stroke-width:8.64"/>
	<rect x="1139.12" y="2323.11" width="16.71" height="102.72" style="fill:#CAC27E"/>
	<rect x="1143.44" y="2327.43" width="8.07" height="94.08" style="fill:none;stroke:#D7D29E;stroke-width:8.64"/>
	<rect x="1155.83" y="2306.03" width="16.71" height="119.79" style="fill:#CAC27E"/>
	<rect x="1160.14" y="2310.35" width="8.07" height="111.15" style="fill:none;stroke:#D7D29E;stroke-width:8.64"/>
	<rect x="1172.53" y="2340.31" width="16.71" height="85.51" style="fill:#CAC27E"/>
	<rect x="1176.85" y="2344.63" width="8.07" height="76.87" style="fill:none;stroke:#D7D29E;stroke-width:8.64"/>
	<rect x="1189.24" y="2357.39" width="16.71" height="68.44" style="fill:#CAC27E"/>
	<rect x="1193.56" y="2361.71" width="8.07" height="59.80" style="fill:none;stroke:#D7D29E;stroke-width:8.64"/>
	<rect x="1205.94" y="2391.67" width="16.71" height="34.16" style="fill:#CAC27E"/>
	<rect x="1210.26" y="2395.99" width="8.07" height="25.52" style="fill:none;stroke:#D7D29E;stroke-width:8.64"/>
	<rect x="1222.65" y="2357.39" width="16.71" height="68.44" style="fill:#CAC27E"/>
	<rect x="1226.97" y="2361.71" width="8.07" height="59.80" style="fill:none;stroke:#D7D29E;stroke-width:8.64"/>
	<rect x="1239.36" y="2340.31" width="16.71" height="85.51" style="fill:#CAC27E"/>
	<rect x="1243.68" y="2344.63" width="8.07" height="76.87" style="fill:none;stroke:#D7D29E;stroke-width:8.64"/>
	<rect x="1256.06" y="2340.31" width="16.71" height="85.51" style="fill:#CAC27E"/>
	<rect x="1260.38" y="2344.63" width="8.07" height="76.87" style="fill:none;stroke:#D7D29E;stroke-width:8.64"/>
	<rect x="1272.77" y="2374.47" width="16.71" height="51.36" style="fill:#CAC27E"/>
	<rect x="1277.09" y="2378.79" width="8.07" height="42.72" style="fill:none;stroke:#D7D29E;stroke-width:8.64"/>
	<rect x="1289.47" y="2323.11" width="16.71" height="102.72" style="fill:#CAC27E"/>
	<rect x="1293.79" y="2327.43" width="8.07" height="94.08" style="fill:none;stroke:#D7D29E;stroke-width:8.64"/>
	<rect x="1306.18" y="2408.75" width="16.83" height="17.08" style="fill:#CAC27E"/>
	<rect x="1310.50" y="2413.07" width="8.19" height="8.44" style="fill:none;stroke:#D7D29E;stroke-width:8.64"/>
	<rect x="1323.01" y="2340.31" width="16.71" height="85.51" style="fill:#CAC27E"/>
	<rect x="1327.33" y="2344.63" width="8.07" height="76.87" style="fill:none;stroke:#D7D29E;stroke-width:8.64"/>
	<rect x="1339.72" y="2408.75" width="16.71" height="17.08" style="fill:#CAC27E"/>
	<rect x="1344.04" y="2413.07" width="8.07" height="8.44" style="fill:none;stroke:#D7D29E;stroke-width:8.64"/>
	<rect x="1356.42" y="2374.47" width="16.71" height="51.36" style="fill:#CAC27E"/>
	<rect x="1360.74" y="2378.79" width="8.07" height="42.72" style="fill:none;stroke:#D7D29E;stroke-width:8.64"/>
	<rect x="1373.13" y="2340.31" width="16.71" height="85.51" style="fill:#CAC27E"/>
	<rect x="1377.45" y="2344.63" width="8.07" height="76.87" style="fill:none;stroke:#D7D29E;stroke-width:8.64"/>
	<rect x="1389.84" y="2408.75" width="16.71" height="17.08" style="fill:#CAC27E"/>
	<rect x="1394.16" y="2413.07" width="8.07" height="8.44" style="fill:none;stroke:#D7D29E;stroke-width:8.64"/>
	<rect x="1406.54" y="2357.39" width="16.71" height="68.44" style="fill:#CAC27E"/>
	<rect x="1410.86" y="2361.71" width="8.07" height="59.80" style="fill:none;stroke:#D7D29E;stroke-width:8.64"/>
	<rect x="1423.25" y="2408.75" width="16.71" height="17.08" style="fill:#CAC27E"/>
	<rect x="1427.57" y="2413.07" width="8.07" height="8.44" style="fill:none;stroke:#D7D29E;stroke-width:8.64"/>
	<rect x="1456.66" y="2374.47" width="16.71" height="51.36" style="fill:#CAC27E"/>
	<rect x="1460.98" y="2378.79" width="8.07" height="42.72" style="fill:none;stroke:#D7D29E;stroke-width:8.64"/>
	<rect x="1473.37" y="2391.67" width="16.71" height="34.16" style="fill:#CAC27E"/>
	<rect x="1477.69" y="2395.99" width="8.07" height="25.52" style="fill:none;stroke:#D7D29E;stroke-width:8.64"/>
	<rect x="1506.78" y="2374.47" width="16.71" height="51.36" style="fill:#CAC27E"/>
	<rect x="1511.10" y="2378.79" width="8.07" height="42.72" style="fill:none;stroke:#D7D29E;stroke-width:8.64"/>
	<rect x="1523.49" y="2408.75" width="16.71" height="17.08" style="fill:#CAC27E"/>
	<rect x="1527.81" y="2413.07" width="8.07" height="8.44" style="fill:none;stroke:#D7D29E;stroke-width:8.64"/>
	<rect x="1540.19" y="2408.75" width="16.71" height="17.08" style="fill:#CAC27E"/>
	<rect x="1544.51" y="2413.07" width="8.07" height="8.44" style="fill:none;stroke:#D7D29E;stroke-width:8.64"/>
	<rect x="1556.90" y="2391.67" width="16.71" height="34.16" style="fill:#CAC27E"/>
	<rect x="1561.22" y="2395.99" width="8.07" height="25.52" style="fill:none;stroke:#D7D29E;stroke-width:8.64"/>
	<rect x="1573.61" y="2340.31" width="16.71" height="85.51" style="fill:#CAC27E"/>
	<rect x="1577.92" y="2344.63" width="8.07" height="76.87" style="fill:none;stroke:#D7D29E;stroke-width:8.64"/>
	<rect x="1590.31" y="2374.47" width="16.71" height="51.36" style="fill:#CAC27E"/>
	<rect x="1594.63" y="2378.79" width="8.07" height="42.72" style="fill:none;stroke:#D7D29E;stroke-width:8.64"/>
	<rect x="1607.02" y="2408.75" width="16.71" height="17.08" style="fill:#CAC27E"/>
	<rect x="1611.34" y="2413.07" width="8.07" height="8.44" style="fill:none;stroke:#D7D29E;stroke-width:8.64"/>
	<rect x="1623.72" y="2408.75" width="16.71" height="17.08" style="fill:#CAC27E"/>
	<rect x="1628.04" y="2413.07" width="8.07" height="8.44" style="fill:none;stroke:#D7D29E;stroke-width:8.64"/>
	<rect x="1640.43" y="2391.67" width="16.71" height="34.16" style="fill:#CAC27E"/>
	<rect x="1644.75" y="2395.99" width="8.07" height="25.52" style="fill:none;stroke:#D7D29E;stroke-width:8.64"/>
	<rect x="1673.84" y="2408.75" width="16.71" height="17.08" style="fill:#CAC27E"/>
	<rect x="1678.16" y="2413.07" width="8.07" height="8.44" style="fill:none;stroke:#D7D29E;stroke-width:8.64"/>
	<rect x="1707.26" y="2391.67" width="16.71" height="34.16" style="fill:#CAC27E"/>
	<rect x="1711.57" y="2395.99" width="8.07" height="25.52" style="fill:none;stroke:#D7D29E;stroke-width:8.64"/>
	<rect x="1723.96" y="2408.75" width="16.71" height="17.08" style="fill:#CAC27E"/>
	<rect x="1728.28" y="2413.07" width="8.07" height="8.44" style="fill:none;stroke:#D7D29E;stroke-width:8.64"/>
	<rect x="1774.08" y="2408.75" width="16.71" height="17.08" style="fill:#CAC27E"/>
	<rect x="1778.40" y="2413.07" width="8.07" height="8.44" style="fill:none;stroke:#D7D29E;stroke-width:8.64"/>
	<rect x="1790.79" y="2391.67" width="16.71" height="34.16" style="fill:#CAC27E"/>
	<rect x="1795.11" y="2395.99" width="8.07" height="25.52" style="fill:none;stroke:#D7D29E;stroke-width:8.64"/>
	<rect x="1807.49" y="2408.75" width="16.71" height="17.08" style="fill:#CAC27E"/>
	<rect x="1811.81" y="2413.07" width="8.07" height="8.44" style="fill:none;stroke:#D7D29E;stroke-width:8.64"/>
	<rect x="1840.90" y="2408.75" width="16.71" height="17.08" style="fill:#CAC27E"/>
	<rect x="1845.22" y="2413.07" width="8.07" height="8.44" style="fill:none;stroke:#D7D29E;stroke-width:8.64"/>
	<rect x="1857.61" y="2391.67" width="16.71" height="34.16" style="fill:#CAC27E"/>
	<rect x="1861.93" y="2395.99" width="8.07" height="25.52" style="fill:none;stroke:#D7D29E;stroke-width:8.64"/>
	<rect x="2007.97" y="2408.75" width="16.71" height="17.08" style="fill:#CAC27E"/>
	<rect x="2012.29" y="2413.07" width="8.07" height="8.44" style="fill:none;stroke:#D7D29E;stroke-width:8.64"/>
	<rect x="2058.09" y="2408.75" width="16.71" height="17.08" style="fill:#CAC27E"/>
	<rect x="2062.41" y="2413.07" width="8.07" height="8.44" style="fill:none;stroke:#D7D29E;stroke-width:8.64"/>
	<rect x="2108.20" y="2408.75" width="16.71" height="17.08" style="fill:#CAC27E"/>
	<rect x="2112.52" y="2413.07" width="8.07" height="8.44" style="fill:none;stroke:#D7D29E;stroke-width:8.64"/>
	<rect x="2158.32" y="2408.75" width="16.71" height="17.08" style="fill:#CAC27E"/>
	<rect x="2162.64" y="2413.07" width="8.07" height="8.44" style="fill:none;stroke:#D7D29E;stroke-width:8.64"/>
	<rect x="2408.92" y="2408.75" width="16.71" height="17.08" style="fill:#CAC27E"/>
	<rect x="2413.24" y="2413.07" width="8.07" height="8.44" style="fill:none;stroke:#D7D29E;stroke-width:8.64"/>
	<rect x="2609.52" y="2408.75" width="16.71" height="17.08" style="fill:#CAC27E"/>
	<rect x="2613.84" y="2413.07" width="8.07" height="8.44" style="fill:none;stroke:#D7D29E;stroke-width:8.64"/>
	<rect x="3177.53" y="2408.75" width="16.71" height="17.08" style="fill:#CAC27E"/>
	<rect x="3181.85" y="2413.07" width="8.07" height="8.44" style="fill:none;stroke:#D7D29E;stroke-width:8.64"/>
	<line x1="390.80" y1="2489.19" x2="390.80" y2="100.86" style="stroke:#000000;stroke-width:5.76"/>
	<line x1="390.80" y1="2425.82" x2="350.83" y2="2425.82" style="stroke:#000000;stroke-width:5.76"/>
	<text x="300.72" y="2425.82" style="font-family:'Helvetica';font-size:99.99px;fill:#000000" transform="rotate(-90 300.72,2425.82)" text-anchor="middle">0</text>
	<line x1="390.80" y1="1671.91" x2="350.83" y2="1671.91" style="stroke:#000000;stroke-width:5.76"/>
	<text x="300.72" y="1671.91" style="font-family:'Helvetica';font-size:99.99px;fill:#000000" transform="rotate(-90 300.72,1671.91)" text-anchor="middle">20</text>
	<line x1="390.80" y1="918.01" x2="350.83" y2="918.01" style="stroke:#000000;stroke-width:5.76"/>
	<text x="300.72" y="918.01" style="font-family:'Helvetica';font-size:99.99px;fill:#000000" transform="rotate(-90 300.72,918.01)" text-anchor="middle">40</text>
	<line x1="390.80" y1="164.22" x2="350.83" y2="164.22" style="stroke:#000000;stroke-width:5.76"/>
	<text x="300.72" y="164.22" style="font-family:'Helvetica';font-size:99.99px;fill:#000000" transform="rotate(-90 300.72,164.22)" text-anchor="middle">60</text>
	<text x="190.71" y="1294.96" style="font-family:'Helvetica';font-size:99.99px;fill:#000000" transform="rotate(-90 190.71,1294.96)" text-anchor="middle">Density</text>
	<line x1="390.80" y1="2489.19" x2="3859.02" y2="2489.19" style="stroke:#000000;stroke-width:5.76"/>
	<line x1="454.16" y1="2489.19" x2="454.16" y2="2529.16" style="stroke:#000000;stroke-width:5.76"/>
	<text x="454.16" y="2619.14" style="font-family:'Helvetica';font-size:99.99px;fill:#000000" text-anchor="middle">0</text>
	<line x1="1289.47" y1="2489.19" x2="1289.47" y2="2529.16" style="stroke:#000000;stroke-width:5.76"/>
	<text x="1289.47" y="2619.14" style="font-family:'Helvetica';font-size:99.99px;fill:#000000" text-anchor="middle">.05</text>
	<line x1="2124.91" y1="2489.19" x2="2124.91" y2="2529.16" style="stroke:#000000;stroke-width:5.76"/>
	<text x="2124.91" y="2619.14" style="font-family:'Helvetica';font-size:99.99px;fill:#000000" text-anchor="middle">.1</text>
	<line x1="2960.35" y1="2489.19" x2="2960.35" y2="2529.16" style="stroke:#000000;stroke-width:5.76"/>
	<text x="2960.35" y="2619.14" style="font-family:'Helvetica';font-size:99.99px;fill:#000000" text-anchor="middle">.15</text>
	<line x1="3795.66" y1="2489.19" x2="3795.66" y2="2529.16" style="stroke:#000000;stroke-width:5.76"/>
	<text x="3795.66" y="2619.14" style="font-family:'Helvetica';font-size:99.99px;fill:#000000" text-anchor="middle">.2</text>
	<text x="2124.91" y="2729.16" style="font-family:'Helvetica';font-size:99.99px;fill:#000000" text-anchor="middle">mobility_rate</text>
</svg>
