<?xml version="1.0" encoding="UTF-8" standalone="no"?>
<!-- This is a Stata 16.1 generated SVG file (http://www.stata.com) -->

<svg version="1.1" width="600px" height="436px" viewBox="0 0 3960 2880" xmlns="http://www.w3.org/2000/svg" xmlns:xlink="http://www.w3.org/1999/xlink">
	<desc>Stata Graph - Graph</desc>
	<rect x="0" y="0" width="3960" height="2880" style="fill:#EAF2F3;stroke:none"/>
	<rect x="0.00" y="0.00" width="3959.88" height="2880.00" style="fill:#FFFFFF"/>
	<rect x="2.88" y="2.88" width="3954.12" height="2874.24" style="fill:none;stroke:#FFFFFF;stroke-width:5.76"/>
	<rect x="390.80" y="275.35" width="3468.22" height="2099.36" style="fill:#FFFFFF"/>
	<rect x="393.68" y="278.23" width="3462.46" height="2093.60" style="fill:none;stroke:#FFFFFF;stroke-width:5.76"/>
	<line x1="390.80" y1="2311.35" x2="3859.02" y2="2311.35" style="stroke:#EAF2F3;stroke-width:8.64"/>
	<line x1="390.80" y1="1931.55" x2="3859.02" y2="1931.55" style="stroke:#EAF2F3;stroke-width:8.64"/>
	<line x1="390.80" y1="1551.87" x2="3859.02" y2="1551.87" style="stroke:#EAF2F3;stroke-width:8.64"/>
	<line x1="390.80" y1="1172.07" x2="3859.02" y2="1172.07" style="stroke:#EAF2F3;stroke-width:8.64"/>
	<line x1="390.80" y1="792.40" x2="3859.02" y2="792.40" style="stroke:#EAF2F3;stroke-width:8.64"/>
	<line x1="390.80" y1="412.60" x2="3859.02" y2="412.60" style="stroke:#EAF2F3;stroke-width:8.64"/>
	<line x1="1261.63" y1="2374.71" x2="1261.63" y2="2317.17" style="stroke:#000000;stroke-width:8.64"/>
	<line x1="1261.63" y1="2288.33" x2="1261.63" y2="2230.66" style="stroke:#000000;stroke-width:8.64"/>
	<line x1="1261.63" y1="2201.95" x2="1261.63" y2="2144.28" style="stroke:#000000;stroke-width:8.64"/>
	<line x1="1261.63" y1="2115.57" x2="1261.63" y2="2057.90" style="stroke:#000000;stroke-width:8.64"/>
	<line x1="1261.63" y1="2029.07" x2="1261.63" y2="1971.52" style="stroke:#000000;stroke-width:8.64"/>
	<line x1="1261.63" y1="1942.69" x2="1261.63" y2="1885.14" style="stroke:#000000;stroke-width:8.64"/>
	<line x1="1261.63" y1="1856.31" x2="1261.63" y2="1798.76" style="stroke:#000000;stroke-width:8.64"/>
	<line x1="1261.63" y1="1769.93" x2="1261.63" y2="1712.38" style="stroke:#000000;stroke-width:8.64"/>
	<line x1="1261.63" y1="1683.55" x2="1261.63" y2="1626.00" style="stroke:#000000;stroke-width:8.64"/>
	<line x1="1261.63" y1="1597.17" x2="1261.63" y2="1539.62" style="stroke:#000000;stroke-width:8.64"/>
	<line x1="1261.63" y1="1510.79" x2="1261.63" y2="1453.24" style="stroke:#000000;stroke-width:8.64"/>
	<line x1="1261.63" y1="1424.41" x2="1261.63" y2="1366.86" style="stroke:#000000;stroke-width:8.64"/>
	<line x1="1261.63" y1="1338.03" x2="1261.63" y2="1280.36" style="stroke:#000000;stroke-width:8.64"/>
	<line x1="1261.63" y1="1251.65" x2="1261.63" y2="1193.98" style="stroke:#000000;stroke-width:8.64"/>
	<line x1="1261.63" y1="1165.27" x2="1261.63" y2="1107.60" style="stroke:#000000;stroke-width:8.64"/>
	<line x1="1261.63" y1="1078.76" x2="1261.63" y2="1021.22" style="stroke:#000000;stroke-width:8.64"/>
	<line x1="1261.63" y1="992.38" x2="1261.63" y2="934.84" style="stroke:#000000;stroke-width:8.64"/>
	<line x1="1261.63" y1="906.00" x2="1261.63" y2="848.46" style="stroke:#000000;stroke-width:8.64"/>
	<line x1="1261.63" y1="819.62" x2="1261.63" y2="762.08" style="stroke:#000000;stroke-width:8.64"/>
	<line x1="1261.63" y1="733.24" x2="1261.63" y2="675.70" style="stroke:#000000;stroke-width:8.64"/>
	<line x1="1261.63" y1="646.86" x2="1261.63" y2="589.32" style="stroke:#000000;stroke-width:8.64"/>
	<line x1="1261.63" y1="560.48" x2="1261.63" y2="502.94" style="stroke:#000000;stroke-width:8.64"/>
	<line x1="1261.63" y1="474.10" x2="1261.63" y2="416.56" style="stroke:#000000;stroke-width:8.64"/>
	<line x1="1261.63" y1="387.72" x2="1261.63" y2="330.05" style="stroke:#000000;stroke-width:8.64"/>
	<line x1="1261.63" y1="301.34" x2="1261.63" y2="275.35" style="stroke:#000000;stroke-width:8.64"/>
	<rect x="454.16" y="1987.73" width="82.79" height="323.62" style="fill:#0000FF;fill-opacity:0.40"/>
	<rect x="458.48" y="1992.05" width="74.15" height="314.98" style="fill:none;stroke:#0000FF;stroke-opacity:0.40;stroke-width:8.64"/>
	<rect x="536.95" y="888.43" width="82.79" height="1422.92" style="fill:#0000FF;fill-opacity:0.40"/>
	<rect x="541.27" y="892.75" width="74.15" height="1414.28" style="fill:none;stroke:#0000FF;stroke-opacity:0.40;stroke-width:8.64"/>
	<rect x="619.74" y="338.71" width="82.91" height="1972.64" style="fill:#0000FF;fill-opacity:0.40"/>
	<rect x="624.06" y="343.03" width="74.27" height="1964.00" style="fill:none;stroke:#0000FF;stroke-opacity:0.40;stroke-width:8.64"/>
	<rect x="702.65" y="738.81" width="82.79" height="1572.54" style="fill:#0000FF;fill-opacity:0.40"/>
	<rect x="706.97" y="743.13" width="74.15" height="1563.90" style="fill:none;stroke:#0000FF;stroke-opacity:0.40;stroke-width:8.64"/>
	<rect x="785.44" y="1434.55" width="82.79" height="876.80" style="fill:#0000FF;fill-opacity:0.40"/>
	<rect x="789.76" y="1438.87" width="74.15" height="868.16" style="fill:none;stroke:#0000FF;stroke-opacity:0.40;stroke-width:8.64"/>
	<rect x="868.23" y="1792.95" width="82.79" height="518.40" style="fill:#0000FF;fill-opacity:0.40"/>
	<rect x="872.55" y="1797.27" width="74.15" height="509.77" style="fill:none;stroke:#0000FF;stroke-opacity:0.40;stroke-width:8.64"/>
	<rect x="951.02" y="1949.49" width="82.91" height="361.86" style="fill:#0000FF;fill-opacity:0.40"/>
	<rect x="955.34" y="1953.81" width="74.27" height="353.22" style="fill:none;stroke:#0000FF;stroke-opacity:0.40;stroke-width:8.64"/>
	<rect x="1033.93" y="2116.44" width="82.79" height="194.91" style="fill:#0000FF;fill-opacity:0.40"/>
	<rect x="1038.25" y="2120.76" width="74.15" height="186.27" style="fill:none;stroke:#0000FF;stroke-opacity:0.40;stroke-width:8.64"/>
	<rect x="1116.72" y="2203.44" width="82.79" height="107.91" style="fill:#0000FF;fill-opacity:0.40"/>
	<rect x="1121.04" y="2207.76" width="74.15" height="99.27" style="fill:none;stroke:#0000FF;stroke-opacity:0.40;stroke-width:8.64"/>
	<rect x="1199.51" y="2245.27" width="82.79" height="66.08" style="fill:#0000FF;fill-opacity:0.40"/>
	<rect x="1203.83" y="2249.59" width="74.15" height="57.44" style="fill:none;stroke:#0000FF;stroke-opacity:0.40;stroke-width:8.64"/>
	<rect x="1282.30" y="2255.66" width="82.91" height="55.69" style="fill:#0000FF;fill-opacity:0.40"/>
	<rect x="1286.62" y="2259.98" width="74.27" height="47.05" style="fill:none;stroke:#0000FF;stroke-opacity:0.40;stroke-width:8.64"/>
	<rect x="1365.21" y="2269.52" width="82.79" height="41.83" style="fill:#0000FF;fill-opacity:0.40"/>
	<rect x="1369.53" y="2273.84" width="74.15" height="33.19" style="fill:none;stroke:#0000FF;stroke-opacity:0.40;stroke-width:8.64"/>
	<rect x="1448.00" y="2283.51" width="82.79" height="27.84" style="fill:#0000FF;fill-opacity:0.40"/>
	<rect x="1452.32" y="2287.83" width="74.15" height="19.20" style="fill:none;stroke:#0000FF;stroke-opacity:0.40;stroke-width:8.64"/>
	<rect x="1530.79" y="2266.06" width="82.79" height="45.29" style="fill:#0000FF;fill-opacity:0.40"/>
	<rect x="1535.11" y="2270.38" width="74.15" height="36.65" style="fill:none;stroke:#0000FF;stroke-opacity:0.40;stroke-width:8.64"/>
	<rect x="1613.58" y="2297.37" width="82.91" height="13.98" style="fill:#0000FF;fill-opacity:0.40"/>
	<rect x="1617.90" y="2301.69" width="74.27" height="5.34" style="fill:none;stroke:#0000FF;stroke-opacity:0.40;stroke-width:8.64"/>
	<rect x="1696.49" y="2300.83" width="82.79" height="10.52" style="fill:#0000FF;fill-opacity:0.40"/>
	<rect x="1700.81" y="2305.15" width="74.15" height="1.88" style="fill:none;stroke:#0000FF;stroke-opacity:0.40;stroke-width:8.64"/>
	<rect x="1779.28" y="2290.44" width="82.79" height="20.91" style="fill:#0000FF;fill-opacity:0.40"/>
	<rect x="1783.60" y="2294.76" width="74.15" height="12.27" style="fill:none;stroke:#0000FF;stroke-opacity:0.40;stroke-width:8.64"/>
	<rect x="1862.07" y="2307.89" width="82.79" height="3.47" style="fill:#0000FF;fill-opacity:0.40"/>
	<rect x="1866.39" y="2307.03" width="74.15" height="5.17" style="fill:none;stroke:#0000FF;stroke-opacity:0.40;stroke-width:8.64"/>
	<rect x="1944.86" y="2307.89" width="82.91" height="3.47" style="fill:#0000FF;fill-opacity:0.40"/>
	<rect x="1949.17" y="2307.03" width="74.27" height="5.17" style="fill:none;stroke:#0000FF;stroke-opacity:0.40;stroke-width:8.64"/>
	<rect x="2027.77" y="2307.89" width="82.79" height="3.47" style="fill:#0000FF;fill-opacity:0.40"/>
	<rect x="2032.09" y="2307.03" width="74.15" height="5.17" style="fill:none;stroke:#0000FF;stroke-opacity:0.40;stroke-width:8.64"/>
	<rect x="2110.56" y="2304.30" width="82.79" height="7.05" style="fill:#0000FF;fill-opacity:0.40"/>
	<rect x="2114.88" y="2307.03" width="74.15" height="1.59" style="fill:none;stroke:#0000FF;stroke-opacity:0.40;stroke-width:8.64"/>
	<rect x="2359.05" y="2307.89" width="82.79" height="3.47" style="fill:#0000FF;fill-opacity:0.40"/>
	<rect x="2363.37" y="2307.03" width="74.15" height="5.17" style="fill:none;stroke:#0000FF;stroke-opacity:0.40;stroke-width:8.64"/>
	<rect x="2607.41" y="2307.89" width="82.91" height="3.47" style="fill:#0000FF;fill-opacity:0.40"/>
	<rect x="2611.73" y="2307.03" width="74.27" height="5.17" style="fill:none;stroke:#0000FF;stroke-opacity:0.40;stroke-width:8.64"/>
	<rect x="3104.39" y="2307.89" width="82.79" height="3.47" style="fill:#0000FF;fill-opacity:0.40"/>
	<rect x="3108.71" y="2307.03" width="74.15" height="5.17" style="fill:none;stroke:#0000FF;stroke-opacity:0.40;stroke-width:8.64"/>
	<line x1="1456.66" y1="792.40" x2="1289.47" y2="792.40" style="stroke:#000000;stroke-width:8.64"/>
	<line x1="1289.47" y1="792.40" x2="1328.09" y2="771.36" stroke-linecap="round" style="stroke:#000000;stroke-width:8.64"/>
	<line x1="1289.47" y1="792.40" x2="1328.09" y2="813.43" stroke-linecap="round" style="stroke:#000000;stroke-width:8.64"/>
	<text x="1572.49" y="820.41" style="font-family:'Helvetica';font-size:79.94px;fill:#000000" text-anchor="middle">UCSD</text>
	<line x1="390.80" y1="2374.71" x2="390.80" y2="275.35" style="stroke:#000000;stroke-width:5.76"/>
	<line x1="390.80" y1="2311.35" x2="350.83" y2="2311.35" style="stroke:#000000;stroke-width:5.76"/>
	<text x="300.72" y="2311.35" style="font-family:'Helvetica';font-size:99.99px;fill:#000000" transform="rotate(-90 300.72,2311.35)" text-anchor="middle">0</text>
	<line x1="390.80" y1="1931.55" x2="350.83" y2="1931.55" style="stroke:#000000;stroke-width:5.76"/>
	<text x="300.72" y="1931.55" style="font-family:'Helvetica';font-size:99.99px;fill:#000000" transform="rotate(-90 300.72,1931.55)" text-anchor="middle">10</text>
	<line x1="390.80" y1="1551.87" x2="350.83" y2="1551.87" style="stroke:#000000;stroke-width:5.76"/>
	<text x="300.72" y="1551.87" style="font-family:'Helvetica';font-size:99.99px;fill:#000000" transform="rotate(-90 300.72,1551.87)" text-anchor="middle">20</text>
	<line x1="390.80" y1="1172.07" x2="350.83" y2="1172.07" style="stroke:#000000;stroke-width:5.76"/>
	<text x="300.72" y="1172.07" style="font-family:'Helvetica';font-size:99.99px;fill:#000000" transform="rotate(-90 300.72,1172.07)" text-anchor="middle">30</text>
	<line x1="390.80" y1="792.40" x2="350.83" y2="792.40" style="stroke:#000000;stroke-width:5.76"/>
	<text x="300.72" y="792.40" style="font-family:'Helvetica';font-size:99.99px;fill:#000000" transform="rotate(-90 300.72,792.40)" text-anchor="middle">40</text>
	<line x1="390.80" y1="412.60" x2="350.83" y2="412.60" style="stroke:#000000;stroke-width:5.76"/>
	<text x="300.72" y="412.60" style="font-family:'Helvetica';font-size:99.99px;fill:#000000" transform="rotate(-90 300.72,412.60)" text-anchor="middle">50</text>
	<text x="190.71" y="1325.03" style="font-family:'Helvetica';font-size:99.99px;fill:#000000" transform="rotate(-90 190.71,1325.03)" text-anchor="middle">Density</text>
	<line x1="390.80" y1="2374.71" x2="3859.02" y2="2374.71" style="stroke:#000000;stroke-width:5.76"/>
	<line x1="454.16" y1="2374.71" x2="454.16" y2="2414.69" style="stroke:#000000;stroke-width:5.76"/>
	<text x="454.16" y="2504.54" style="font-family:'Helvetica';font-size:99.99px;fill:#000000" text-anchor="middle">0</text>
	<line x1="788.29" y1="2374.71" x2="788.29" y2="2414.69" style="stroke:#000000;stroke-width:5.76"/>
	<text x="788.29" y="2504.54" style="font-family:'Helvetica';font-size:99.99px;fill:#000000" text-anchor="middle">.02</text>
	<line x1="1122.41" y1="2374.71" x2="1122.41" y2="2414.69" style="stroke:#000000;stroke-width:5.76"/>
	<text x="1122.41" y="2504.54" style="font-family:'Helvetica';font-size:99.99px;fill:#000000" text-anchor="middle">.04</text>
	<line x1="1456.66" y1="2374.71" x2="1456.66" y2="2414.69" style="stroke:#000000;stroke-width:5.76"/>
	<text x="1456.66" y="2504.54" style="font-family:'Helvetica';font-size:99.99px;fill:#000000" text-anchor="middle">.06</text>
	<line x1="1790.79" y1="2374.71" x2="1790.79" y2="2414.69" style="stroke:#000000;stroke-width:5.76"/>
	<text x="1790.79" y="2504.54" style="font-family:'Helvetica';font-size:99.99px;fill:#000000" text-anchor="middle">.08</text>
	<line x1="2124.91" y1="2374.71" x2="2124.91" y2="2414.69" style="stroke:#000000;stroke-width:5.76"/>
	<text x="2124.91" y="2504.54" style="font-family:'Helvetica';font-size:99.99px;fill:#000000" text-anchor="middle">.1</text>
	<line x1="2459.04" y1="2374.71" x2="2459.04" y2="2414.69" style="stroke:#000000;stroke-width:5.76"/>
	<text x="2459.04" y="2504.54" style="font-family:'Helvetica';font-size:99.99px;fill:#000000" text-anchor="middle">.12</text>
	<line x1="2793.28" y1="2374.71" x2="2793.28" y2="2414.69" style="stroke:#000000;stroke-width:5.76"/>
	<text x="2793.28" y="2504.54" style="font-family:'Helvetica';font-size:99.99px;fill:#000000" text-anchor="middle">.14</text>
	<line x1="3127.41" y1="2374.71" x2="3127.41" y2="2414.69" style="stroke:#000000;stroke-width:5.76"/>
	<text x="3127.41" y="2504.54" style="font-family:'Helvetica';font-size:99.99px;fill:#000000" text-anchor="middle">.16</text>
	<line x1="3461.53" y1="2374.71" x2="3461.53" y2="2414.69" style="stroke:#000000;stroke-width:5.76"/>
	<text x="3461.53" y="2504.54" style="font-family:'Helvetica';font-size:99.99px;fill:#000000" text-anchor="middle">.18</text>
	<line x1="3795.66" y1="2374.71" x2="3795.66" y2="2414.69" style="stroke:#000000;stroke-width:5.76"/>
	<text x="3795.66" y="2504.54" style="font-family:'Helvetica';font-size:99.99px;fill:#000000" text-anchor="middle">.2</text>
	<text x="2124.91" y="2614.56" style="font-family:'Helvetica';font-size:99.99px;fill:#000000" text-anchor="middle">Mobility Rate</text>
	<text x="408.00" y="2737.89" style="font-family:'Helvetica';font-size:79.94px;fill:#000000">Source: Opportunity Insights</text>
	<text x="2124.91" y="215.98" style="font-family:'Helvetica';font-size:139.96px;fill:#1E2D53" text-anchor="middle">Distribution of Mobility Rates across U.S. Colleges</text>
</svg>
