<?xml version="1.0" encoding="UTF-8" standalone="no"?>
<!-- This is a Stata 16.1 generated SVG file (http://www.stata.com) -->

<svg version="1.1" width="600px" height="436px" viewBox="0 0 3960 2880" xmlns="http://www.w3.org/2000/svg" xmlns:xlink="http://www.w3.org/1999/xlink">
	<desc>Stata Graph - Graph</desc>
	<rect x="0" y="0" width="3960" height="2880" style="fill:#EAF2F3;stroke:none"/>
	<rect x="0.00" y="0.00" width="3959.88" height="2880.00" style="fill:#EAF2F3"/>
	<rect x="2.88" y="2.88" width="3954.12" height="2874.24" style="fill:none;stroke:#EAF2F3;stroke-width:5.76"/>
	<rect x="390.80" y="100.86" width="3468.22" height="2388.33" style="fill:#FFFFFF"/>
	<rect x="393.68" y="103.74" width="3462.46" height="2382.57" style="fill:none;stroke:#FFFFFF;stroke-width:5.76"/>
	<line x1="390.80" y1="2425.82" x2="3859.02" y2="2425.82" style="stroke:#EAF2F3;stroke-width:8.64"/>
	<line x1="390.80" y1="1990.46" x2="3859.02" y2="1990.46" style="stroke:#EAF2F3;stroke-width:8.64"/>
	<line x1="390.80" y1="1555.09" x2="3859.02" y2="1555.09" style="stroke:#EAF2F3;stroke-width:8.64"/>
	<line x1="390.80" y1="1119.72" x2="3859.02" y2="1119.72" style="stroke:#EAF2F3;stroke-width:8.64"/>
	<line x1="390.80" y1="684.24" x2="3859.02" y2="684.24" style="stroke:#EAF2F3;stroke-width:8.64"/>
	<line x1="390.80" y1="248.87" x2="3859.02" y2="248.87" style="stroke:#EAF2F3;stroke-width:8.64"/>
	<rect x="454.16" y="2054.93" width="101.23" height="370.89" style="fill:#CAC27E"/>
	<rect x="458.48" y="2059.25" width="92.59" height="362.25" style="fill:none;stroke:#D7D29E;stroke-width:8.64"/>
	<rect x="555.39" y="794.38" width="101.23" height="1631.45" style="fill:#CAC27E"/>
	<rect x="559.71" y="798.70" width="92.59" height="1622.81" style="fill:none;stroke:#D7D29E;stroke-width:8.64"/>
	<rect x="656.62" y="164.22" width="101.35" height="2261.60" style="fill:#CAC27E"/>
	<rect x="660.94" y="168.54" width="92.71" height="2252.96" style="fill:none;stroke:#D7D29E;stroke-width:8.64"/>
	<rect x="757.97" y="622.85" width="101.23" height="1802.97" style="fill:#CAC27E"/>
	<rect x="762.29" y="627.17" width="92.59" height="1794.33" style="fill:none;stroke:#D7D29E;stroke-width:8.64"/>
	<rect x="859.20" y="1420.69" width="101.23" height="1005.13" style="fill:#CAC27E"/>
	<rect x="863.52" y="1425.01" width="92.59" height="996.49" style="fill:none;stroke:#D7D29E;stroke-width:8.64"/>
	<rect x="960.42" y="1831.56" width="101.23" height="594.27" style="fill:#CAC27E"/>
	<rect x="964.74" y="1835.88" width="92.59" height="585.63" style="fill:none;stroke:#D7D29E;stroke-width:8.64"/>
	<rect x="1061.65" y="2011.00" width="101.35" height="414.82" style="fill:#CAC27E"/>
	<rect x="1065.97" y="2015.32" width="92.71" height="406.18" style="fill:none;stroke:#D7D29E;stroke-width:8.64"/>
	<rect x="1163.00" y="2202.45" width="101.23" height="223.38" style="fill:#CAC27E"/>
	<rect x="1167.32" y="2206.77" width="92.59" height="214.74" style="fill:none;stroke:#D7D29E;stroke-width:8.64"/>
	<rect x="1264.23" y="2302.19" width="101.23" height="123.63" style="fill:#CAC27E"/>
	<rect x="1268.55" y="2306.51" width="92.59" height="114.99" style="fill:none;stroke:#D7D29E;stroke-width:8.64"/>
	<rect x="1365.46" y="2350.09" width="101.23" height="75.74" style="fill:#CAC27E"/>
	<rect x="1369.78" y="2354.41" width="92.59" height="67.10" style="fill:none;stroke:#D7D29E;stroke-width:8.64"/>
	<rect x="1466.68" y="2361.97" width="101.35" height="63.86" style="fill:#CAC27E"/>
	<rect x="1471.00" y="2366.29" width="92.71" height="55.22" style="fill:none;stroke:#D7D29E;stroke-width:8.64"/>
	<rect x="1568.04" y="2377.93" width="101.23" height="47.89" style="fill:#CAC27E"/>
	<rect x="1572.36" y="2382.25" width="92.59" height="39.25" style="fill:none;stroke:#D7D29E;stroke-width:8.64"/>
	<rect x="1669.26" y="2393.89" width="101.23" height="31.93" style="fill:#CAC27E"/>
	<rect x="1673.58" y="2398.21" width="92.59" height="23.29" style="fill:none;stroke:#D7D29E;stroke-width:8.64"/>
	<rect x="1770.49" y="2373.97" width="101.23" height="51.85" style="fill:#CAC27E"/>
	<rect x="1774.81" y="2378.29" width="92.59" height="43.21" style="fill:none;stroke:#D7D29E;stroke-width:8.64"/>
	<rect x="1871.72" y="2409.86" width="101.35" height="15.96" style="fill:#CAC27E"/>
	<rect x="1876.04" y="2414.18" width="92.71" height="7.32" style="fill:none;stroke:#D7D29E;stroke-width:8.64"/>
	<rect x="1973.07" y="2413.82" width="101.23" height="12.00" style="fill:#CAC27E"/>
	<rect x="1977.39" y="2418.14" width="92.59" height="3.36" style="fill:none;stroke:#D7D29E;stroke-width:8.64"/>
	<rect x="2074.30" y="2401.94" width="101.23" height="23.88" style="fill:#CAC27E"/>
	<rect x="2078.62" y="2406.26" width="92.59" height="15.24" style="fill:none;stroke:#D7D29E;stroke-width:8.64"/>
	<rect x="2175.53" y="2421.86" width="101.35" height="3.96" style="fill:#CAC27E"/>
	<rect x="2179.84" y="2421.50" width="92.71" height="4.68" style="fill:none;stroke:#D7D29E;stroke-width:8.64"/>
	<rect x="2276.88" y="2421.86" width="101.23" height="3.96" style="fill:#CAC27E"/>
	<rect x="2281.20" y="2421.50" width="92.59" height="4.68" style="fill:none;stroke:#D7D29E;stroke-width:8.64"/>
	<rect x="2378.10" y="2421.86" width="101.23" height="3.96" style="fill:#CAC27E"/>
	<rect x="2382.42" y="2421.50" width="92.59" height="4.68" style="fill:none;stroke:#D7D29E;stroke-width:8.64"/>
	<rect x="2479.33" y="2417.90" width="101.23" height="7.92" style="fill:#CAC27E"/>
	<rect x="2483.65" y="2421.50" width="92.59" height="0.72" style="fill:none;stroke:#D7D29E;stroke-width:8.64"/>
	<rect x="2783.14" y="2421.86" width="101.23" height="3.96" style="fill:#CAC27E"/>
	<rect x="2787.46" y="2421.50" width="92.59" height="4.68" style="fill:none;stroke:#D7D29E;stroke-width:8.64"/>
	<rect x="3086.94" y="2421.86" width="101.23" height="3.96" style="fill:#CAC27E"/>
	<rect x="3091.26" y="2421.50" width="92.59" height="4.68" style="fill:none;stroke:#D7D29E;stroke-width:8.64"/>
	<rect x="3694.43" y="2421.86" width="101.23" height="3.96" style="fill:#CAC27E"/>
	<rect x="3698.75" y="2421.50" width="92.59" height="4.68" style="fill:none;stroke:#D7D29E;stroke-width:8.64"/>
	<line x1="390.80" y1="2489.19" x2="390.80" y2="100.86" style="stroke:#000000;stroke-width:5.76"/>
	<line x1="390.80" y1="2425.82" x2="350.83" y2="2425.82" style="stroke:#000000;stroke-width:5.76"/>
	<text x="300.72" y="2425.82" style="font-family:'Helvetica';font-size:99.99px;fill:#000000" transform="rotate(-90 300.72,2425.82)" text-anchor="middle">0</text>
	<line x1="390.80" y1="1990.46" x2="350.83" y2="1990.46" style="stroke:#000000;stroke-width:5.76"/>
	<text x="300.72" y="1990.46" style="font-family:'Helvetica';font-size:99.99px;fill:#000000" transform="rotate(-90 300.72,1990.46)" text-anchor="middle">10</text>
	<line x1="390.80" y1="1555.09" x2="350.83" y2="1555.09" style="stroke:#000000;stroke-width:5.76"/>
	<text x="300.72" y="1555.09" style="font-family:'Helvetica';font-size:99.99px;fill:#000000" transform="rotate(-90 300.72,1555.09)" text-anchor="middle">20</text>
	<line x1="390.80" y1="1119.72" x2="350.83" y2="1119.72" style="stroke:#000000;stroke-width:5.76"/>
	<text x="300.72" y="1119.72" style="font-family:'Helvetica';font-size:99.99px;fill:#000000" transform="rotate(-90 300.72,1119.72)" text-anchor="middle">30</text>
	<line x1="390.80" y1="684.24" x2="350.83" y2="684.24" style="stroke:#000000;stroke-width:5.76"/>
	<text x="300.72" y="684.24" style="font-family:'Helvetica';font-size:99.99px;fill:#000000" transform="rotate(-90 300.72,684.24)" text-anchor="middle">40</text>
	<line x1="390.80" y1="248.87" x2="350.83" y2="248.87" style="stroke:#000000;stroke-width:5.76"/>
	<text x="300.72" y="248.87" style="font-family:'Helvetica';font-size:99.99px;fill:#000000" transform="rotate(-90 300.72,248.87)" text-anchor="middle">50</text>
	<text x="190.71" y="1294.96" style="font-family:'Helvetica';font-size:99.99px;fill:#000000" transform="rotate(-90 190.71,1294.96)" text-anchor="middle">Density</text>
	<line x1="390.80" y1="2489.19" x2="3859.02" y2="2489.19" style="stroke:#000000;stroke-width:5.76"/>
	<line x1="454.16" y1="2489.19" x2="454.16" y2="2529.16" style="stroke:#000000;stroke-width:5.76"/>
	<text x="454.16" y="2619.14" style="font-family:'Helvetica';font-size:99.99px;fill:#000000" text-anchor="middle">0</text>
	<line x1="1475.47" y1="2489.19" x2="1475.47" y2="2529.16" style="stroke:#000000;stroke-width:5.76"/>
	<text x="1475.47" y="2619.14" style="font-family:'Helvetica';font-size:99.99px;fill:#000000" text-anchor="middle">.05</text>
	<line x1="2496.90" y1="2489.19" x2="2496.90" y2="2529.16" style="stroke:#000000;stroke-width:5.76"/>
	<text x="2496.90" y="2619.14" style="font-family:'Helvetica';font-size:99.99px;fill:#000000" text-anchor="middle">.1</text>
	<line x1="3518.34" y1="2489.19" x2="3518.34" y2="2529.16" style="stroke:#000000;stroke-width:5.76"/>
	<text x="3518.34" y="2619.14" style="font-family:'Helvetica';font-size:99.99px;fill:#000000" text-anchor="middle">.15</text>
	<text x="2124.91" y="2729.16" style="font-family:'Helvetica';font-size:99.99px;fill:#000000" text-anchor="middle">mobility_rate</text>
</svg>
